PathFileType	4	(X/Y/Z)	G:\Shared drives\HPL_Drive\Pi-Spi Study\20230118_AMCsubject1\Trimmed_left_horiz_add01_rotated.trc
DataRate	CameraRate	NumFrames	NumMarkers	Units	OrigDataRate	OrigDataStartFrame	OrigNumFrames
200.00	200.00	       10	35	mm	200.00	126	       200
Frame#	Time	C7			Sternum			r_AMC1			r_AMC2			r_AMC3			l_AMC1			l_AMC2			l_AMC3			PX			T8			r_humerous			r_elbow_medial			r_elbow_lateral			r_forearm			r_wrist_radius			r_wrist_ulna			r_MCP_1			r_MCP_3			l_humerous			l_elbow_medial			l_elbow_lateral			l_forearm			l_wrist_radius			l_wrist_ulna			l_MCP_1			l_MCP_3			r_ASIS			r_PSIS			l_ASIS			l_PSIS			r_IC			l_IC			TS			AI			AA			
		X1	Y1	Z1	X2	Y2	Z2	X3	Y3	Z3	X4	Y4	Z4	X5	Y5	Z5	X6	Y6	Z6	X7	Y7	Z7	X8	Y8	Z8	X9	Y9	Z9	X10	Y10	Z10	X11	Y11	Z11	X12	Y12	Z12	X13	Y13	Z13	X14	Y14	Z14	X15	Y15	Z15	X16	Y16	Z16	X17	Y17	Z17	X18	Y18	Z18	X19	Y19	Z19	X20	Y20	Z20	X21	Y21	Z21	X22	Y22	Z22	X23	Y23	Z23	X24	Y24	Z24	X25	Y25	Z25	X26	Y26	Z26	X27	Y27	Z27	X28	Y28	Z28	X29	Y29	Z29	X30	Y30	Z30	X31	Y31	Z31	X32	Y32	Z32	X33	Y33	Z33	X34	Y34	Z34	X35	Y35	Z35	

126	0.625	180.4679	1368.1512	-254.1414	316.3959	1321.7513	-227.2837	180.1827	1324.6046	-84.8881	214.1972	1331.8079	-48.6336	231.9209	1366.4568	-72.2589	236.5782	1342.0968	-407.8702	281.9134	1364.6144	-417.6452	271.2198	1388.7695	-371.3306	393.9038	1133.0695	-214.914	161.4336	1189.5917	-251.913	298.7688	1149.8705	-27.2626	229.576	1006.4103	-50.5363	250.6078	1016.9194	12.1013	307.5377	862.4855	29.7004	355.901	799.8258	6.2004	310.1616	793.5021	29.6416	379.3755	717.3877	16.2825	332.6057	713.4789	36.0792	421.154	1330.197	-297.3034	531.5939	1239.2703	-264.1558	558.1053	1282.3125	-278.0254	675.2458	1310.3344	-168.2776	712.7466	1327.454	-102.5739	722.7823	1285.7429	-108.4824	772.2042	1339.0098	-53.2283	778.1612	1295.849	-53.2744	387.7779	907.0531	-88.8056	192.8909	929.0206	-155.3658	367.5054	894.5167	-345.1108	185.1943	922.8547	-258.8147	308.4541	971.898	-54.9539	277.4443	940.4136	-377.404	147.7294	1296.678	-387.3758	171.258	1200.1071	-403.3816	245.7214	1340.2175	-475.2888
127	0.63	180.5057	1368.163	-254.1387	316.4423	1321.756	-227.2641	180.2049	1324.6481	-84.8352	214.2811	1331.7981	-48.6527	231.988	1366.4783	-72.2333	236.6257	1342.1172	-407.8532	282.0566	1364.5521	-417.7246	271.2856	1388.7698	-371.3225	394.2858	1133.1212	-214.9398	161.46	1189.6079	-251.9051	298.772	1149.915	-27.2272	229.5973	1006.4117	-50.5185	250.6641	1016.9559	12.1241	307.616	862.4849	29.7164	355.9015	799.8915	6.2367	310.2608	793.444	29.6432	379.4463	717.4163	16.2528	332.6598	713.5055	36.1027	421.19	1330.2097	-297.3032	533.6244	1238.3085	-264.6043	558.1477	1282.3008	-278.0734	674.8776	1309.9819	-168.1986	712.769	1327.4666	-102.573	722.819	1285.7221	-108.4643	772.2145	1339.007	-53.2481	778.1942	1295.8624	-53.2804	387.7796	907.0616	-88.7451	192.9578	929.0322	-155.3651	367.5259	894.5065	-345.103	185.2012	922.8807	-258.8018	308.4788	971.8729	-54.971	277.5429	940.3565	-377.3711	147.7529	1296.6467	-387.3106	171.3031	1200.0818	-403.3808	245.7416	1340.2129	-475.2983
128	0.635	180.5295	1368.1671	-254.1378	316.4493	1321.7492	-227.2742	180.2466	1324.6472	-84.8145	214.2848	1331.8278	-48.6166	232.0038	1366.5217	-72.2374	236.6538	1342.09	-407.8427	282.0113	1364.5674	-417.6551	271.0058	1388.6687	-370.8501	394.3367	1133.1393	-214.9413	161.4571	1189.5969	-251.8853	298.7585	1149.9314	-27.1788	229.6369	1006.4161	-50.4963	250.1407	1017.0186	12.3453	307.7102	862.5192	29.7745	355.9198	799.985	6.2572	310.3284	793.4409	29.6535	379.5107	717.4414	16.2788	332.7162	713.5219	36.0808	421.2527	1330.1471	-297.3187	531.6289	1239.2722	-264.2044	558.2154	1282.2229	-278.0626	675.3424	1310.2588	-168.3191	712.869	1327.3873	-102.5995	722.8398	1285.7141	-108.4958	772.251	1338.9755	-53.2561	778.2529	1295.7668	-53.2825	387.8968	907.0369	-88.827	192.9683	929.0231	-155.3428	367.5745	894.516	-345.0803	185.2403	922.8732	-258.7993	308.4331	971.8665	-54.9823	277.5791	940.3456	-377.374	147.7658	1296.6325	-387.293	171.3326	1200.0664	-403.3335	245.7905	1340.1377	-475.3003
129	0.64	180.5495	1368.1765	-254.115	316.5006	1321.7737	-227.2643	180.2929	1324.6499	-84.8119	214.3018	1331.8922	-48.6278	232.1012	1366.42	-72.2565	236.652	1342.0643	-407.8189	282.0541	1364.573	-417.7224	271.3753	1388.9833	-371.2971	394.3681	1133.1953	-214.8981	161.4758	1189.5898	-251.86	298.8583	1149.9169	-27.1798	229.682	1006.4325	-50.4691	250.1909	1016.9976	12.4088	307.7653	862.5291	29.7942	356.0038	799.8956	6.2531	310.4178	793.4169	29.6447	379.5209	717.4763	16.2947	332.7649	713.4982	36.1338	421.2871	1330.1011	-297.3309	531.7034	1239.1986	-264.1479	558.2447	1282.2297	-278.0935	674.9238	1309.9587	-168.2036	712.8958	1327.3744	-102.6173	722.8655	1285.6672	-108.5099	772.2612	1338.9877	-53.2562	778.2727	1295.7541	-53.3017	387.9452	907.0401	-88.7727	193.0189	929.0339	-155.3235	367.5969	894.5111	-345.0787	185.2649	922.8727	-258.7801	308.5205	971.7884	-54.9929	277.5755	940.4181	-377.3899	147.8147	1296.6127	-387.3318	171.3549	1200.0579	-403.3121	245.7808	1340.1328	-475.2642
130	0.645	180.5683	1368.1691	-254.0953	316.5482	1321.7681	-227.2482	180.3274	1324.6705	-84.7357	214.3465	1331.8446	-48.6058	232.1575	1366.4454	-72.2518	236.6901	1342.0599	-407.7973	282.0403	1364.5273	-417.6479	271.3741	1388.98	-371.2376	394.9177	1133.3181	-214.8149	161.5238	1189.5808	-251.8487	298.8943	1149.9076	-27.1539	229.7348	1006.4257	-50.465	250.2362	1017.0588	12.4184	307.8033	862.5254	29.7903	356.0784	799.9936	6.2739	310.4211	793.4349	29.6827	379.6223	717.4675	16.2962	332.8693	713.4979	36.0931	421.33	1330.1057	-297.331	533.7219	1238.2257	-264.595	558.2823	1282.1713	-278.1093	675.3887	1310.1947	-168.3275	712.9667	1327.3002	-102.6131	722.8598	1285.6811	-108.5014	772.3207	1338.9186	-53.2651	778.295	1295.7705	-53.3139	387.9503	907.0116	-88.7836	193.0635	929.0342	-155.3471	367.6379	894.5139	-345.0682	185.2968	922.8886	-258.7844	308.5811	971.8319	-54.9853	277.6706	940.3268	-377.3583	147.7917	1296.6089	-387.2292	171.3592	1200.024	-403.3074	245.827	1340.0818	-475.2622
131	0.65	180.6072	1368.1785	-254.0929	316.5552	1321.7696	-227.2137	180.3641	1324.6731	-84.7588	214.3777	1331.8361	-48.5935	232.2123	1366.4349	-72.224	236.7007	1342.0596	-407.8017	282.0869	1364.469	-417.6766	271.4488	1388.9439	-371.2903	394.8891	1133.2958	-214.831	161.5335	1189.5731	-251.8161	298.9682	1149.9408	-27.1313	229.7563	1006.4464	-50.4335	250.2871	1017.0366	12.409	307.8309	862.5354	29.8209	356.1831	799.9173	6.1781	310.4868	793.4561	29.6955	379.6792	717.4722	16.3215	332.912	713.4798	36.1712	421.3355	1330.1069	-297.3433	531.7534	1239.1497	-264.1987	558.2836	1282.1415	-278.093	675.4354	1310.1732	-168.3641	712.9838	1327.2898	-102.632	722.9936	1285.5934	-108.534	772.3494	1338.9021	-53.2749	778.3624	1295.6755	-53.2993	388.0184	907.0261	-88.7427	193.0984	929.0536	-155.3302	367.6608	894.4921	-345.0542	185.3336	922.8727	-258.7934	308.6258	971.7705	-54.9791	277.7192	940.3201	-377.3278	147.8188	1296.6155	-387.2154	171.3807	1200.0179	-403.2461	245.8438	1340.0702	-475.274
132	0.655	180.6182	1368.1731	-254.0937	316.5853	1321.7664	-227.2186	180.4027	1324.6835	-84.7315	214.3943	1331.8839	-48.5959	232.2404	1366.4174	-72.2144	236.699	1342.033	-407.7683	282.1509	1364.465	-417.6497	271.445	1388.9434	-371.2557	394.45	1133.1755	-214.9033	161.5673	1189.5813	-251.8072	298.9947	1149.9214	-27.1409	229.7844	1006.4608	-50.41	250.3478	1017.0707	12.4502	307.9484	862.4808	29.7855	356.2227	799.9183	6.2594	310.5523	793.4368	29.7261	379.8062	717.6309	16.4263	333.0068	713.5005	36.1982	421.3991	1330.0437	-297.3536	531.7732	1239.1199	-264.2073	558.3163	1282.1647	-278.1094	675.4543	1310.16	-168.3531	713.0253	1327.281	-102.6295	722.9971	1285.5707	-108.5241	772.3657	1338.902	-53.2729	778.3763	1295.6541	-53.2902	388.0672	907.0007	-88.789	193.1295	929.0317	-155.3222	367.7127	894.5113	-345.0484	185.351	922.9	-258.7891	308.7172	971.7853	-54.9615	277.7181	940.3342	-377.3261	147.8247	1296.5818	-387.2355	171.3934	1200.0186	-403.2451	245.8436	1340.068	-475.2449
133	0.66	180.6449	1368.1632	-254.077	316.6167	1321.7632	-227.2132	180.4157	1324.7031	-84.7048	214.4269	1331.8391	-48.5413	232.2576	1366.4949	-72.2066	236.7366	1342.033	-407.779	282.1662	1364.4314	-417.6844	271.2352	1388.9056	-370.8396	395.0201	1133.3201	-214.7584	161.5878	1189.5737	-251.7892	299.0356	1149.9486	-27.1109	229.8275	1006.4558	-50.3971	250.3757	1017.0846	12.4839	307.9167	862.5393	29.8355	356.2287	799.9575	6.3028	310.5883	793.4423	29.7659	379.8002	717.4485	16.3466	333.0923	713.4543	36.1995	421.4558	1330.0306	-297.3748	531.8336	1239.1216	-264.1838	558.4025	1282.0801	-278.122	675.4876	1310.0704	-168.3462	713.0826	1327.2404	-102.6431	723.0297	1285.5832	-108.5507	772.4274	1338.8143	-53.2803	778.4338	1295.6334	-53.3453	388.0424	906.9924	-88.7408	193.1563	929.0436	-155.3393	367.738	894.4981	-345.0343	185.4081	922.8956	-258.7842	308.7267	971.76	-54.9608	277.8135	940.3595	-377.3033	147.8423	1296.5881	-387.1979	171.3972	1199.999	-403.1913	245.8206	1340.0306	-475.2515
134	0.665	180.6502	1368.1746	-254.0819	316.6345	1321.766	-227.2102	180.4545	1324.67	-84.7096	214.4551	1331.8447	-48.5548	232.3256	1366.4453	-72.1725	236.7317	1342.0051	-407.7713	282.133	1364.4507	-417.6227	271.2542	1388.8932	-370.82	395.0304	1133.3286	-214.7709	161.6259	1189.5594	-251.7612	299.1474	1149.908	-27.1629	229.8451	1006.4733	-50.3483	250.4556	1017.0804	12.5008	307.9653	862.5617	29.8603	356.32	799.9091	6.2527	310.6107	793.5248	29.7809	379.8527	717.4527	16.3442	333.073	713.4736	36.2272	421.4452	1330.0613	-297.3768	531.8718	1239.0626	-264.2267	558.3951	1282.1035	-278.1416	675.5698	1310.056	-168.3927	713.1146	1327.1945	-102.6734	723.0907	1285.4805	-108.5513	772.4571	1338.8151	-53.2797	778.4665	1295.5969	-53.3455	388.157	907.0198	-88.7494	193.2065	929.0282	-155.3179	367.7757	894.5078	-345.0224	185.4115	922.91	-258.7761	308.8441	971.7193	-54.96	277.8521	940.3563	-377.3367	147.8586	1296.5524	-387.2292	171.4099	1199.9858	-403.1741	245.8222	1340.0323	-475.2224
135	0.67	180.6872	1368.1694	-254.0757	316.6802	1321.7808	-227.2129	180.4647	1324.7047	-84.686	214.5358	1331.8249	-48.5864	232.3106	1366.4811	-72.1523	236.7576	1341.9918	-407.7665	282.1479	1364.4121	-417.6228	271.2769	1388.886	-370.7951	395.0577	1133.3179	-214.7452	161.6447	1189.5663	-251.7276	299.1463	1149.9688	-27.1246	229.895	1006.4817	-50.3501	250.4871	1017.0792	12.536	308.0067	862.5337	29.8782	356.2945	799.9207	6.3257	310.6758	793.4372	29.7804	379.8558	717.5059	16.3556	333.0734	713.5543	36.2408	421.4785	1330.0267	-297.3577	531.9108	1239.073	-264.2161	558.4196	1282.0758	-278.1366	675.5748	1310.0338	-168.3901	713.0888	1327.2347	-102.6741	723.1229	1285.4659	-108.5814	772.5019	1338.8082	-53.3201	778.4855	1295.6084	-53.3571	388.1316	907.0001	-88.734	193.2233	929.0361	-155.3048	367.8222	894.5106	-345.007	185.4561	922.8988	-258.7561	308.8012	971.7459	-54.9508	277.9105	940.3375	-377.3036	147.8789	1296.5687	-387.1581	171.4129	1200.001	-403.1404	245.8578	1340.0077	-475.2263
